# xmcd CD database file
#
# Track frame offsets:
#	150
#	28914
#	73270
#	109162
#	127622
#	166780
#	196084
#	218411
#	249976
#
# Disc length: 3717 seconds
#
# Revision: 0
# Processed by: cddbd v1.4PL0 Copyright (c) Steve Scherf et al.
# Submitted via: CDex 1.50Beta7
#
DISCID=700e8309
DTITLE=Acoustic Version - Dum-ba-ta
DYEAR=1999
DGENRE=Jazz
TTITLE0=DUM-BA-TA
TTITLE1=JESSY, THE CAT
TTITLE2=HOUSE NO.13
TTITLE3=WHERE'S THE HORN
TTITLE4=THE DIE IS CAST
TTITLE5=GETTING HIGH
TTITLE6=LULLABY (TO CHILIO)
TTITLE7=CONNECTIONS 
TTITLE8=CARAVAN OF LIFE
EXTD=YEAR: 1999
EXTT0=
EXTT1=
EXTT2=
EXTT3=
EXTT4=
EXTT5=
EXTT6=
EXTT7=
EXTT8=
PLAYORDER=
